<svg id="图层_1" data-name="图层 1" xmlns="http://www.w3.org/2000/svg" viewBox="0 0 34.13 34.13"><defs><style>.cls-1{fill:#c4daff;}.cls-2{fill:#17acc7;}</style></defs><title>画板 1</title><path class="cls-1" d="M17.06.52A16.54,16.54,0,1,0,33.6,17.06,16.56,16.56,0,0,0,17.06.52Zm0,29.94a13.4,13.4,0,1,1,13.4-13.4A13.41,13.41,0,0,1,17.06,30.46Z"/><path class="cls-2" d="M17.06,13.85a1.65,1.65,0,0,0-1.6,1.61V24a1.61,1.61,0,1,0,3.21,0V15.46A1.65,1.65,0,0,0,17.06,13.85Z"/><path class="cls-2" d="M17.06,8.51a1.61,1.61,0,1,0,1.61,1.6A1.6,1.6,0,0,0,17.06,8.51Z"/></svg>