<svg id="图层_1" data-name="图层 1" xmlns="http://www.w3.org/2000/svg" viewBox="0 0 34.13 34.13"><defs><style>.cls-1{fill:#17acc7;}.cls-2{fill:#c4daff;}</style></defs><title>画板 1</title><path class="cls-1" d="M24.39,16.46H10.3a1.51,1.51,0,0,0,0,3H24.39A1.44,1.44,0,0,0,25.9,18,1.52,1.52,0,0,0,24.39,16.46Z"/><path class="cls-1" d="M24.39,23.57H10.3a1.51,1.51,0,0,0,0,3H24.39a1.44,1.44,0,0,0,1.51-1.51A1.52,1.52,0,0,0,24.39,23.57Z"/><path class="cls-2" d="M27.41,4.48H24.89v-2h-3a6,6,0,0,0-4.57-2,6,6,0,0,0-4.58,2h-3v2H7.28A4.53,4.53,0,0,0,2.75,9V29.14a4.53,4.53,0,0,0,4.53,4.53H27.41a4.53,4.53,0,0,0,4.53-4.53V9A4.53,4.53,0,0,0,27.41,4.48Zm-5.54,1v3h-9v-3H15V5c0-.84,1-1.51,2.32-1.51s2.31.7,2.31,1.51v.5Zm3,6v-4h2.52A1.52,1.52,0,0,1,28.92,9V29.14a1.52,1.52,0,0,1-1.51,1.51H7.28a1.52,1.52,0,0,1-1.51-1.51V9A1.52,1.52,0,0,1,7.28,7.5H9.8v4Z"/></svg>