<svg id="圖層_1" data-name="圖層 1" xmlns="http://www.w3.org/2000/svg" viewBox="0 0 48 48"><title>工作區域 1 複本 7</title><path d="M45.55,27.86l-5-5.07A28.53,28.53,0,0,0,45.76,18a1.58,1.58,0,0,0-.52-2.09,1.78,1.78,0,0,0-.78-.2,1.67,1.67,0,0,0-1.28.68c-1.09,1.46-10.43,9.81-18.51,9.81-4.77,0-11.82-1.69-18.26-9.7a1.93,1.93,0,0,0-.54-.63,1.32,1.32,0,0,0-1-.41,1.41,1.41,0,0,0-1.19.59,1.55,1.55,0,0,0,.1,2.17,1,1,0,0,1,.23.31,34.72,34.72,0,0,0,3.74,3.94l-.06.06L2.45,27.86A1.52,1.52,0,0,0,2,29,1.54,1.54,0,0,0,2.45,30a1.57,1.57,0,0,0,1.09.49A1.28,1.28,0,0,0,4.63,30l5.24-5.33a1.9,1.9,0,0,0,.22-.33A25.8,25.8,0,0,0,17,28a1.5,1.5,0,0,0-.18.24l-4,6.59A1.63,1.63,0,0,0,12.61,36a1.41,1.41,0,0,0,.72,1,1.76,1.76,0,0,0,.77.19,1.45,1.45,0,0,0,1.29-.87l4-6.55a1.38,1.38,0,0,0,.22-1,24.54,24.54,0,0,0,5.07.55,17.23,17.23,0,0,0,3.76-.44,1.64,1.64,0,0,0,.18,1l4,6.53a1.43,1.43,0,0,0,1.31.82,1.78,1.78,0,0,0,.79-.2,1.41,1.41,0,0,0,.67-.94,1.59,1.59,0,0,0-.17-1.15l-4-6.53a1,1,0,0,0-.17-.28,33.57,33.57,0,0,0,7-3.52c0,.05.06.11.1.15L43.37,30a1.58,1.58,0,0,0,1.09.49A1.26,1.26,0,0,0,45.55,30,1.54,1.54,0,0,0,46,29,1.52,1.52,0,0,0,45.55,27.86Z"/></svg>