<svg id="圖層_1" data-name="圖層 1" xmlns="http://www.w3.org/2000/svg" viewBox="0 0 48 48"><defs><style>.cls-1{fill:#1ad2f1;}</style></defs><title>工作區域 1 複本 8</title><path class="cls-1" d="M24.31,6.56a16,16,0,1,0,16,16A16,16,0,0,0,24.31,6.56ZM33.64,18.5,23.05,29.08h0l0,0a1.51,1.51,0,0,1-2.12,0s-.06-.1-.1-.15l-6.24-6.24a1.5,1.5,0,0,1,2.12-2.12L22,25.9l9.52-9.52a1.5,1.5,0,1,1,2.13,2.12Z"/><polygon class="cls-1" points="23.05 29.08 23.05 29.08 23.05 29.08 23.05 29.08"/><path class="cls-1" d="M20.93,29.08,20.81,29c0,.05.06.11.1.15a1.51,1.51,0,0,0,2.12,0l0,0A1.49,1.49,0,0,1,20.93,29.08Z"/></svg>