<?xml version="1.0" encoding="utf-8"?>
<!-- Generator: Adobe Illustrator 22.0.0, SVG Export Plug-In . SVG Version: 6.00 Build 0)  -->
<svg version="1.1" id="图层_1" xmlns="http://www.w3.org/2000/svg" xmlns:xlink="http://www.w3.org/1999/xlink" x="0px" y="0px"
	 viewBox="0 0 200 200" style="enable-background:new 0 0 200 200;" xml:space="preserve">
<path d="M100,9C49.7,9,9,49.7,9,100s40.7,91,91,91s91-40.7,91-91S150.3,9,100,9z M140,138.3c-4.9,4.9-12.8,4.9-17.7,0l-20.6-20.6
	l-20.6,20.6c-4.9,4.9-12.8,4.9-17.7,0s-4.9-12.8,0-17.7L84.1,100L63.5,79.4c-4.9-4.9-4.9-12.8,0-17.7s12.8-4.9,17.7,0l20.6,20.6
	l20.6-20.6c4.9-4.9,12.8-4.9,17.7,0s4.9,12.8,0,17.7L119.4,100l20.6,20.6C145,125.6,145,133.4,140,138.3z"/>
</svg>
