<svg id="圖層_1" data-name="圖層 1" xmlns="http://www.w3.org/2000/svg" viewBox="0 0 64 64"><title>工作區域 17 複本</title><path d="M35.05,31.68l-5.48,5.48a1.77,1.77,0,0,0,0,2.07,1.44,1.44,0,0,0,2.09,0l5.47-5.47,5.47,5.47a1.57,1.57,0,0,0,1,.45,1.59,1.59,0,0,0,1-.45,1.44,1.44,0,0,0,0-2.08l-5.47-5.47,5.47-5.47a1.46,1.46,0,0,0,0-2.09,1.51,1.51,0,0,0-1-.44,1.47,1.47,0,0,0-1,.44l-5.47,5.47-5.47-5.47a1.48,1.48,0,1,0-2.09,2.09Z"/><path d="M55.74,14H22.52c-.75,0-1.4,0-17.52,16.79a1.44,1.44,0,0,0,0,2.08C21.26,49.24,21.79,49.24,22.52,49.24H55.74a2.82,2.82,0,0,0,2.82-2.81V16.8A2.82,2.82,0,0,0,55.74,14Zm-.16,3V46.27H23c-1.73-1.33-8.82-8.46-14.71-14.59C14.5,25.18,21.44,18.24,23,17Z"/></svg>