<?xml version="1.0" encoding="utf-8"?>
<!-- Generator: Adobe Illustrator 22.0.0, SVG Export Plug-In . SVG Version: 6.00 Build 0)  -->
<svg version="1.1" id="图层_1" xmlns="http://www.w3.org/2000/svg" xmlns:xlink="http://www.w3.org/1999/xlink" x="0px" y="0px"
	 viewBox="0 0 51.6 47" style="enable-background:new 0 0 51.6 47;" xml:space="preserve">
<title></title>
<g>
	<g>
		<path d="M23.5,47c-0.4,0-0.8-0.2-1.1-0.4l-22-22C0.1,24.3,0,23.9,0,23.5c0-0.4,0.2-0.8,0.4-1.1l22-22c0.3-0.3,0.7-0.4,1.1-0.3
			c0.5,0,0.9,0.2,1.2,0.7c0.2,0.2,0.2,0.5,0.3,0.8c0,0.4-0.2,0.8-0.4,1.1L5.2,22h44.9c0.8,0,1.5,0.7,1.5,1.5S50.9,25,50.1,25H5.2
			l19.4,19.4c0.3,0.3,0.4,0.7,0.4,1.1c0,0.4-0.2,0.8-0.4,1.1C24.3,46.9,23.9,47,23.5,47z"/>
	</g>
</g>
</svg>
