<?xml version="1.0" encoding="utf-8"?>
<!-- Generator: Adobe Illustrator 22.0.0, SVG Export Plug-In . SVG Version: 6.00 Build 0)  -->
<svg version="1.1" id="图层_1" xmlns="http://www.w3.org/2000/svg" xmlns:xlink="http://www.w3.org/1999/xlink" x="0px" y="0px"
	 viewBox="0 0 200 200" style="enable-background:new 0 0 200 200;" xml:space="preserve">
<path d="M100.4,186.4c47.5-0.3,85.7-39.1,85.4-86.5c-0.3-47.5-39.1-85.7-86.5-85.4c-47.5,0.3-85.7,39.1-85.4,86.5
	C14.2,148.5,52.9,186.8,100.4,186.4z M99.3,48.4c4.7,0,8.6,3.8,8.7,8.5s-3.8,8.6-8.5,8.7s-8.6-3.8-8.7-8.5S94.6,48.4,99.3,48.4z
	 M86.4,141.4L86.4,141.4c0-1.2,0.2-2.4,0.5-3.5l7.3-53.4c0-3,2.4-5.5,5.4-5.5c3,0,5.5,2.4,5.5,5.4l8.1,53.2c0.3,1.1,0.5,2.2,0.5,3.4
	l0,0l0,0.2c0.1,7.6-6,13.7-13.6,13.8c-7.6,0.1-13.7-6-13.8-13.6C86.4,141.5,86.4,141.5,86.4,141.4L86.4,141.4z"/>
</svg>
