<svg id="圖層_1" data-name="圖層 1" xmlns="http://www.w3.org/2000/svg" viewBox="0 0 48 48"><title>工作區域 1 複本 6</title><path d="M41.35,17A23.41,23.41,0,0,0,23.92,8.87,23.27,23.27,0,0,0,6.4,17.13c-2.22,2.54-4.4,6-4.4,7,0,.67,1.38,4,4.49,7.41a23.17,23.17,0,0,0,17.75,7.6,22.4,22.4,0,0,0,16.61-6.7C44.45,28.83,46,25,46,24.2,46,23.1,43.74,19.58,41.35,17Zm1.44,7.14,0,0A19.72,19.72,0,0,1,24.24,35.79c-6.3,0-11.47-2.2-15.34-6.55a21.41,21.41,0,0,1-3.44-5l-.06-.13L5.46,24A27.47,27.47,0,0,1,8.9,19.16C13.21,14.39,18.32,12,24.08,12a19.83,19.83,0,0,1,14.93,7A29.47,29.47,0,0,1,42.72,24Z"/><path d="M24.24,14.65a9.23,9.23,0,1,0,9.24,9.23A9.24,9.24,0,0,0,24.24,14.65Zm6,9.23a5.87,5.87,0,1,1-1.64-4.18A5.81,5.81,0,0,1,30.22,23.88Z"/><path d="M22.29,20a2.08,2.08,0,1,0,2.08,2.08A2.08,2.08,0,0,0,22.29,20Z"/></svg>