<svg id="图层_1" data-name="图层 1" xmlns="http://www.w3.org/2000/svg" viewBox="0 0 34.13 34.13"><defs><style>.cls-1{fill:#c4daff;}.cls-2{fill:#17acc7;}</style></defs><title>画板 1</title><path class="cls-1" d="M13.29,21.32H6.88a1.5,1.5,0,1,0,0,3h6.41a1.5,1.5,0,0,0,0-3Z"/><path class="cls-1" d="M13.29,16.36H6.88a1.5,1.5,0,1,0,0,3h6.41a1.5,1.5,0,0,0,0-3Z"/><path class="cls-1" d="M30.22,5.49H3.9A3.34,3.34,0,0,0,.56,8.83V27.15A3.35,3.35,0,0,0,3.9,30.49H30.22a3.35,3.35,0,0,0,3.34-3.34V8.83A3.34,3.34,0,0,0,30.22,5.49Zm.34,3.34V27.15a.34.34,0,0,1-.34.34H3.9a.34.34,0,0,1-.34-.34V8.83a.34.34,0,0,1,.34-.34H30.22A.34.34,0,0,1,30.56,8.83Z"/><path class="cls-1" d="M13.29,11.4H6.88a1.5,1.5,0,0,0,0,3h6.41a1.5,1.5,0,0,0,0-3Z"/><path class="cls-2" d="M25.87,18.17a4.44,4.44,0,0,0,.92-2.72A4.5,4.5,0,1,0,18.61,18a6.48,6.48,0,0,0-3,5.43,1.5,1.5,0,0,0,3,0,3.5,3.5,0,0,1,7,0,1.5,1.5,0,0,0,3,0A6.5,6.5,0,0,0,25.87,18.17Zm-2.08-2.72a1.5,1.5,0,1,1-1.5-1.5A1.5,1.5,0,0,1,23.79,15.45Z"/></svg>