<svg id="图层_1" data-name="图层 1" xmlns="http://www.w3.org/2000/svg" viewBox="0 0 34.13 34.13"><defs><style>.cls-1{fill:#c4daff;}.cls-2{fill:#17acc7;}</style></defs><title>画板 1</title><path class="cls-1" d="M33.61,23.84l0-.05a1.57,1.57,0,0,0-.89-.79,4.28,4.28,0,0,1,0-8.07,1.59,1.59,0,0,0,1.06-1.5V10.62a3.92,3.92,0,0,0-3.93-3.87h-.3L7.23,1.3a3.9,3.9,0,0,0-4.62,3L2,7a1.83,1.83,0,0,0,0,.47,3.87,3.87,0,0,0-1.64,3.2v2.76A1.58,1.58,0,0,0,1.42,15a4.26,4.26,0,0,1,2.84,4,4.27,4.27,0,0,1-2.85,4,1.59,1.59,0,0,0-1.06,1.5v2.82a3.83,3.83,0,0,0,1.16,2.74,3.92,3.92,0,0,0,2.76,1.13l25.6,0a3.91,3.91,0,0,0,3.91-3.91V24.56A1.65,1.65,0,0,0,33.61,23.84ZM5.35,6.77,5.73,5a.71.71,0,0,1,.69-.57h.13l9.59,2.35ZM3.53,25.55A7.56,7.56,0,0,0,7.45,19a7.55,7.55,0,0,0-3.91-6.57V10.68a.78.78,0,0,1,.21-.52A.83.83,0,0,1,4.27,10H29.84a.79.79,0,0,1,.53.2.76.76,0,0,1,.21.52V12.4a7.47,7.47,0,0,0,0,13.15v1.77a.72.72,0,0,1-.72.72L4.25,28a.71.71,0,0,1-.51-.21.74.74,0,0,1-.21-.51Z"/><path class="cls-2" d="M10.78,17.09h12.6A1.6,1.6,0,0,0,25,15.46a1.62,1.62,0,0,0-1.62-1.58H10.78a1.61,1.61,0,0,0,0,3.21Z"/><path class="cls-2" d="M10.77,23.59H23.38A1.61,1.61,0,0,0,25,22a1.62,1.62,0,0,0-1.62-1.57H10.75a1.6,1.6,0,0,0-1.13.48,1.61,1.61,0,0,0,1.15,2.72Z"/></svg>