<svg id="tc_1" data-name="tc1" xmlns="http://www.w3.org/2000/svg" viewBox="0 0 315 315"><defs><style>.cls-1{fill:#c4daff;}</style></defs><path class="cls-1" d="M63.65,3.26l46.8,72.43A7.79,7.79,0,0,0,124,74.23l3-7.1Z"/><path class="cls-1" d="M66.62,3.26,127.88,65,140.76,35a20.83,20.83,0,0,0-.71-18.18A26,26,0,0,0,117.56,3.26Z"/><path class="cls-1" d="M198.17,3.26A33.13,33.13,0,0,0,172.83,19c-8.79,13.09-37.77,56.5-47,70.31a7.78,7.78,0,0,0,0,8.56l18,27.77L253.89,3.26Z"/><polygon class="cls-1" points="145.01 127.55 159.87 150.95 257.09 3.27 145.01 127.55"/><polygon class="cls-1" points="74 201.56 75.11 193.88 37.29 193.88 36.17 201.56 74 201.56"/><polygon class="cls-1" points="206.96 178.57 171.8 178.57 172.27 175.32 154.19 175.32 153.72 178.57 118.56 178.57 117.49 185.95 205.89 185.95 206.96 178.57"/><polygon class="cls-1" points="207.56 201.46 208.63 194.08 193.27 194.08 195.06 188.58 177.14 188.58 175.34 194.08 145.67 194.08 147.12 188.58 129.19 188.58 127.73 194.08 112.48 194.08 111.41 201.46 207.56 201.46"/><polygon class="cls-1" points="179.72 228.17 180.64 221.48 179.07 221.48 178.03 228.17 179.72 228.17"/><polygon class="cls-1" points="176.43 228.17 177.46 221.48 175.73 221.48 174.69 228.17 176.43 228.17"/><polygon class="cls-1" points="173.09 228.17 174.13 221.48 172.46 221.48 171.42 228.17 173.09 228.17"/><polygon class="cls-1" points="169.82 228.17 170.86 221.48 169.19 221.48 168.16 228.17 169.82 228.17"/><polygon class="cls-1" points="198.87 228.17 202.17 205.47 115.64 205.47 112.34 228.17 163.3 228.17 164.34 221.48 131.4 221.48 132.75 212.16 183.11 212.16 180.79 228.17 198.87 228.17"/><polygon class="cls-1" points="166.55 228.17 167.59 221.48 165.94 221.48 164.9 228.17 166.55 228.17"/><path class="cls-1" d="M115.88,239.84H98.57L96.3,220.25l10.77-6.36,1.52-10.52-13.41,7.86-2.49-21.65h9.92a8.94,8.94,0,0,0,8.83-7.61l1-6.69H102.11l-1,6.72H91.74l0-.17a7.54,7.54,0,0,0-7.5-6.7H75.78l.77,6.87h-57l-8.44,58.13h0l-.94,6.5h7.28a10.22,10.22,0,0,0,10.11-8.75l3-20.61h4.61l0,.68a22.39,22.39,0,0,0,5.15,15.17l.63.76-1,.48a58.45,58.45,0,0,1-7.75,2.92l-1.33,9.17A87.53,87.53,0,0,0,49,240.62l.37-.16.31.16a68,68,0,0,0,16.6,5.83l1.33-9.17a48.22,48.22,0,0,1-7-2.92l-.92-.47.89-.78A30.32,30.32,0,0,0,70.15,218l.18-.68h5.51L77,209.6h-5.3l.63-4.32H59.1l-.62,4.32H49.36l.63-4.32H36.81l-.62,4.32h-4.5l2.9-20H77.51l3.4,30-5.5,3.21-1.54,10.62L82,228.6l2.11,18.13H128.4l.55-.51v0l15.68-14.6H125.15ZM48.13,218.12l0-.85h9.17l-.2.85A17.25,17.25,0,0,1,52,226.53l-.67.63-.48-.63A12.49,12.49,0,0,1,48.13,218.12Z"/><path class="cls-1" d="M307.4,190.86l1.1-7.58H286.41l1.12-7.76H279a8,8,0,0,0-7.93,6.86l-.13.9H248.88l-1.1,7.58h22.09l-1.66,11.47H248.47l-1.06,7.28H286.2l-.74,1.13a51.24,51.24,0,0,1-12,12.22l-.53.4-.44-.37a33,33,0,0,1-7.83-9.27H249.57a42.38,42.38,0,0,0,11.18,15.7l.83.77-1.17.54a81.77,81.77,0,0,1-17.27,5.62l-1.45,10A96.15,96.15,0,0,0,271,237.4l.39-.2.34.19a76.32,76.32,0,0,0,27.12,8.93l1.44-10a70.68,70.68,0,0,1-16.19-5.72l-1-.52,1.05-.78c9.13-6.89,15.8-14.85,19.52-23.24a2.69,2.69,0,0,0-2.47-3.77H283.64l1.67-11.47Z"/><path class="cls-1" d="M233.73,206.55l2.21-15.2h7.86l1.1-7.58H237l1.2-8.25h-9a8.46,8.46,0,0,0-8.37,7.24l-.15,1h-8.64l-1.1,7.58h8.64l-2.74,18.87-8.92,2-1.27,8.71,8.93-2-3,20.8H181.28l1.19-8.15H164.38l-2.17,14.94h59.16a9.75,9.75,0,0,0,7.74-8.17l3.36-23.09,8.12-1.86,1.26-8.63Z"/><path class="cls-1" d="M15.17,260.09l5.38,38.51h.2l20.56-38.51h8.41L23.59,307.34H14.26L6.77,260.09Z"/><path class="cls-1" d="M81.4,263.2a9.74,9.74,0,0,1,2.27,8.93,13.36,13.36,0,0,1-2.79,6.09,14.85,14.85,0,0,1-6,4l0,.13a8.15,8.15,0,0,1,4.91,4,10.64,10.64,0,0,1,1.19,7.74,16.4,16.4,0,0,1-6.66,10.26c-3.62,2.58-8.25,3.9-13.87,3.9s-9.8-1.32-12.33-3.9-3.45-6-2.61-10.26a14.49,14.49,0,0,1,4.24-7.74,13.56,13.56,0,0,1,6.47-4l0-.13a8,8,0,0,1-4.43-4,10.08,10.08,0,0,1-.39-6.09,14.32,14.32,0,0,1,5.8-8.93,20.4,20.4,0,0,1,12.9-4C75.11,259.16,78.89,260.48,81.4,263.2ZM56.85,288a9.7,9.7,0,0,0-3.72,6.09,5.94,5.94,0,0,0,1.51,5.76c1.44,1.45,3.74,2.18,7,2.18a13.88,13.88,0,0,0,8-2.25,9,9,0,0,0,3.64-5.69,6.71,6.71,0,0,0-1.26-6c-1.46-1.66-3.82-2.45-7.13-2.45A12.62,12.62,0,0,0,56.85,288Zm4.89-20.45a7.94,7.94,0,0,0-3.14,4.84,6.31,6.31,0,0,0,.77,5.16c1.16,1.52,3.32,2.31,6.63,2.31s5.78-.79,7.54-2.31a9,9,0,0,0,2.8-5.16,5.3,5.3,0,0,0-1.23-4.84c-1.42-1.52-3.46-2.25-6.24-2.25A11.29,11.29,0,0,0,61.74,267.56Z"/><path class="cls-1" d="M121.1,263.2a9.75,9.75,0,0,1,2.28,8.93,13.36,13.36,0,0,1-2.79,6.09,14.92,14.92,0,0,1-6,4l0,.13a8.18,8.18,0,0,1,4.91,4,10.59,10.59,0,0,1,1.18,7.74A16.34,16.34,0,0,1,114,304.36c-3.62,2.58-8.25,3.9-13.87,3.9s-9.8-1.32-12.34-3.9-3.44-6-2.61-10.26a14.62,14.62,0,0,1,4.24-7.74,13.63,13.63,0,0,1,6.48-4l0-.13a8.07,8.07,0,0,1-4.43-4,10.16,10.16,0,0,1-.39-6.09,14.4,14.4,0,0,1,5.8-8.93,20.43,20.43,0,0,1,12.91-4C114.82,259.16,118.59,260.48,121.1,263.2ZM96.56,288a9.66,9.66,0,0,0-3.72,6.09,5.92,5.92,0,0,0,1.51,5.76c1.44,1.45,3.74,2.18,7,2.18a13.89,13.89,0,0,0,8-2.25A9.07,9.07,0,0,0,113,294.1c.49-2.51,0-4.57-1.26-6-1.46-1.66-3.82-2.45-7.13-2.45A12.62,12.62,0,0,0,96.56,288Zm4.89-20.45a7.94,7.94,0,0,0-3.14,4.84,6.31,6.31,0,0,0,.77,5.16c1.16,1.52,3.32,2.31,6.62,2.31s5.79-.79,7.54-2.31a8.91,8.91,0,0,0,2.81-5.16,5.3,5.3,0,0,0-1.23-4.84c-1.42-1.52-3.46-2.25-6.24-2.25A11.27,11.27,0,0,0,101.45,267.56Z"/><path class="cls-1" d="M134.58,298.87a4.35,4.35,0,0,1,.8,3.7,6.48,6.48,0,0,1-6.25,5.16,4.13,4.13,0,0,1-3.35-1.45,4.22,4.22,0,0,1-.79-3.71,6,6,0,0,1,2.25-3.7,5.58,5.58,0,0,1,3.94-1.53A4,4,0,0,1,134.58,298.87Z"/><path class="cls-1" d="M185.89,263.53c2.9,2.78,4.19,6.61,4,11.38h-7.55c-.18-3.11-1.19-5.36-3.09-6.82s-4.41-2.11-7.72-2.11a15.82,15.82,0,0,0-12.19,5.09c-2.91,3.05-4.87,7.28-5.94,12.71s-.82,9.86.84,12.84c1.82,3.17,5.33,4.83,10.5,4.83a15.73,15.73,0,0,0,8.75-2.45,19.14,19.14,0,0,0,6.36-8.08h7.54a27.15,27.15,0,0,1-10,13,24,24,0,0,1-14,4.36c-7.88,0-13.27-2.51-16.14-7.41-2.54-4.23-3.08-9.93-1.67-17.07s4.24-12.78,8.61-17.14c5-5,11.2-7.48,18.75-7.48C178.55,259.16,182.89,260.62,185.89,263.53Z"/><path class="cls-1" d="M237.58,266.17c3.1,4.44,3.92,10.33,2.49,17.61s-4.57,13.1-9.42,17.53a26.37,26.37,0,0,1-18.44,6.95c-7.28,0-12.5-2.38-15.69-7s-3.85-10.33-2.44-17.47,4.49-13,9.34-17.54a25.85,25.85,0,0,1,18.47-7.08C229.11,259.16,234.34,261.48,237.58,266.17Zm-29.39,4.77c-3.21,3.18-5.3,7.41-6.37,12.84s-.64,9.59,1.32,12.77,5.52,4.9,10.41,4.9a17.08,17.08,0,0,0,12.25-4.7c3.19-3.11,5.36-7.41,6.46-13s.63-9.93-1.32-13.11S225.45,266,220.55,266A16.9,16.9,0,0,0,208.19,270.94Z"/><path class="cls-1" d="M261.09,260.09l8.77,37.06h.26l23.33-37.06h9.06l-9.31,47.25h-7.75l6.42-32.56h-.26l-20.32,32.56h-6.68l-7.48-32.56h-.26l-6.42,32.56H242.7L252,260.09Z"/></svg>