<svg id="图层_1" data-name="图层 1" xmlns="http://www.w3.org/2000/svg" viewBox="0 0 33.71 33.71"><defs><style>.cls-1{fill:#c4daff;}.cls-2{fill:#17acc7;}</style></defs><title>画板 1</title><path class="cls-1" d="M28.55,8.7H22.49a4.74,4.74,0,0,0-4.71-4.51H5.09A4.74,4.74,0,0,0,.38,8.7h0V25.16A4.83,4.83,0,0,0,5.16,30H28.55a4.82,4.82,0,0,0,4.8-4.81V13.51A4.83,4.83,0,0,0,28.55,8.7ZM5.09,7.28H17.78A1.65,1.65,0,0,1,19.41,8.7H3.46A1.65,1.65,0,0,1,5.09,7.28Zm25.18,6.63V25.15a1.74,1.74,0,0,1-1.72,1.73H5.16a1.73,1.73,0,0,1-1.72-1.73V11.77h25.1a1.74,1.74,0,0,1,1.73,1.73Z"/><path class="cls-2" d="M18.25,19.41a5.5,5.5,0,0,0,5.5,5.5h6.52V21.84H23.75a2.43,2.43,0,0,1,0-4.85h6.52V13.91H23.75A5.51,5.51,0,0,0,18.25,19.41Z"/><path class="cls-2" d="M27.27,18.32a1.5,1.5,0,0,0-1.09-.46H23.7a1.54,1.54,0,0,0-1.54,1.54,1.46,1.46,0,0,0,.45,1.09,1.52,1.52,0,0,0,1.09.45h2.48a1.54,1.54,0,0,0,1.54-1.53A1.52,1.52,0,0,0,27.27,18.32Z"/></svg>